<svg xmlns="http://www.w3.org/2000/svg" xmlns:xlink="http://www.w3.org/1999/xlink" version="1.1" x="0px" y="0px" viewBox="0 0 100 125" enable-background="new 0 0 100 100" xml:space="preserve"><g><g><path d="M53.396,48.791l17.293-17.289H29.234L46.252,48.52C48.23,50.498,51.561,50.627,53.396,48.791z"/><path d="M74.867,31.564L55.52,50.912c-1.434,1.438-3.367,2.227-5.443,2.227c-2.225,0-4.336-0.887-5.947-2.498L25.062,31.572    c-2.018,0.332-3.562,2.072-3.562,4.184v28.49c0,2.348,1.906,4.252,4.254,4.252h48.494c2.35,0,4.252-1.904,4.252-4.252v-28.49    C78.5,33.619,76.92,31.867,74.867,31.564z"/></g></g><text x="0" y="115" fill="#000000" font-size="5px" font-weight="bold" font-family="'Helvetica Neue', Helvetica, Arial-Unicode, Arial, Sans-serif">Created by lipi</text><text x="0" y="120" fill="#000000" font-size="5px" font-weight="bold" font-family="'Helvetica Neue', Helvetica, Arial-Unicode, Arial, Sans-serif">from the Noun Project</text></svg>