<svg xmlns="http://www.w3.org/2000/svg" xmlns:xlink="http://www.w3.org/1999/xlink" xml:space="preserve" version="1.1" style="shape-rendering:geometricPrecision;text-rendering:geometricPrecision;image-rendering:optimizeQuality;" viewBox="0 0 333.33 416.66249999999997" x="0px" y="0px" fill-rule="evenodd" clip-rule="evenodd"><defs><style type="text/css">
   
    .fil0 {fill:black;fill-rule:nonzero}
   
  </style></defs><g><path class="fil0" d="M166.67 70.41c11.73,0 22.36,4.76 30.04,12.44 7.69,7.68 12.44,18.31 12.44,30.04 0,11.73 -4.76,22.35 -12.44,30.04 -7.68,7.69 -18.31,12.44 -30.04,12.44 -11.73,0 -22.36,-4.76 -30.04,-12.44 -7.69,-7.68 -12.44,-18.31 -12.44,-30.04 0,-11.73 4.76,-22.36 12.44,-30.04 7.68,-7.69 18.31,-12.44 30.04,-12.44zm22.87 19.61c-5.85,-5.85 -13.94,-9.47 -22.87,-9.47 -8.93,0 -17.02,3.62 -22.87,9.47 -5.85,5.85 -9.47,13.94 -9.47,22.87 0,8.93 3.62,17.02 9.47,22.87 5.85,5.85 13.94,9.47 22.87,9.47 8.93,0 17.02,-3.62 22.87,-9.47 5.85,-5.85 9.47,-13.94 9.47,-22.87 0,-8.93 -3.62,-17.02 -9.47,-22.87zm3.75 -41.49c-3.3,-1.37 -6.76,-2.49 -10.33,-3.34 -2.38,-0.43 -4.19,-2.5 -4.19,-5l0 -23.53 -24.22 0 0 23.54c-0,2.3 -1.58,4.39 -3.92,4.93 -3.66,0.86 -7.22,2.02 -10.6,3.42 -3.35,1.39 -6.56,3.02 -9.58,4.86 -1.98,1.48 -4.81,1.32 -6.61,-0.48l-16.65 -16.65 -17.13 17.13 16.64 16.64c1.61,1.63 1.97,4.22 0.71,6.26 -1.95,3.15 -3.67,6.48 -5.1,9.93 -1.37,3.31 -2.5,6.77 -3.35,10.34 -0.43,2.38 -2.5,4.19 -5,4.19l-23.53 0 0 24.23 23.53 0c2.3,0 4.39,1.58 4.93,3.92 0.86,3.66 2.02,7.21 3.42,10.59 1.37,3.34 3.01,6.55 4.87,9.59 1.48,1.98 1.32,4.81 -0.48,6.61l-16.65 16.65 17.13 17.13 16.64 -16.64c1.63,-1.61 4.21,-1.96 6.24,-0.71 3.14,1.94 6.47,3.66 9.97,5.11 3.28,1.37 6.74,2.49 10.33,3.34 2.38,0.42 4.19,2.5 4.19,5l0 23.53 24.23 0 0 -23.54c0,-2.3 1.58,-4.38 3.92,-4.93 3.65,-0.86 7.21,-2.02 10.59,-3.42 3.34,-1.37 6.54,-3.01 9.59,-4.87 1.98,-1.48 4.81,-1.32 6.61,0.48l16.65 16.65 17.13 -17.13 -16.64 -16.64c-1.6,-1.63 -1.96,-4.21 -0.71,-6.24 1.91,-3.08 3.59,-6.33 5.05,-9.83 1.41,-3.43 2.54,-6.89 3.39,-10.46 0.43,-2.38 2.5,-4.19 5,-4.19l23.53 0 0 -24.23 -23.53 0c-2.3,-0 -4.39,-1.58 -4.93,-3.92 -0.86,-3.67 -2.02,-7.22 -3.42,-10.6 -1.37,-3.34 -3.01,-6.54 -4.86,-9.58 -1.48,-1.98 -1.32,-4.81 0.48,-6.61l16.64 -16.65 -17.13 -17.13 -16.64 16.64c-1.63,1.6 -4.21,1.96 -6.24,0.71 -3.08,-1.91 -6.34,-3.59 -9.96,-5.1zm-81.59 212.68c0.92,3.92 1.41,8.01 1.41,12.21 0,4.2 -0.49,8.29 -1.41,12.21l109.92 0c-0.92,-3.92 -1.41,-8.01 -1.41,-12.21 0,-4.2 0.49,-8.29 1.41,-12.21l-109.93 0zm186.36 -23.47c-6.93,-4.76 -15.37,-7.56 -24.46,-7.56 -11.96,0 -22.77,4.83 -30.58,12.65 -8.15,8.15 -12.67,19.09 -12.67,30.59 0,11.49 4.52,22.43 12.67,30.57 7.83,7.83 18.64,12.66 30.58,12.66 9.1,0 17.54,-2.79 24.47,-7.56 5.07,-3.49 9.37,-8.04 12.56,-13.33l-45.78 0c-2.8,0 -5.07,-2.27 -5.07,-5.07l0 -34.56c0,-2.8 2.27,-5.07 5.07,-5.07l45.78 0c-3.2,-5.29 -7.49,-9.84 -12.57,-13.33zm-207.76 5.09c-7.81,-7.82 -18.63,-12.65 -30.58,-12.65 -9.1,0 -17.54,2.8 -24.46,7.56 -5.07,3.49 -9.37,8.04 -12.57,13.33l45.78 0c2.8,0 5.07,2.27 5.07,5.07l0 34.56c0,2.8 -2.27,5.07 -5.07,5.07l-45.78 0c3.2,5.29 7.49,9.84 12.56,13.33 6.93,4.77 15.37,7.56 24.47,7.56 11.94,0 22.75,-4.83 30.58,-12.66 8.15,-8.15 12.67,-19.08 12.67,-30.57 0,-11.5 -4.53,-22.43 -12.67,-30.59z"/></g><text x="0" y="348.33" fill="#000000" font-size="5px" font-weight="bold" font-family="'Helvetica Neue', Helvetica, Arial-Unicode, Arial, Sans-serif">Created by didik</text><text x="0" y="353.33" fill="#000000" font-size="5px" font-weight="bold" font-family="'Helvetica Neue', Helvetica, Arial-Unicode, Arial, Sans-serif">from the Noun Project</text></svg>